<?xml version="1.0" encoding="UTF-8" standalone="no"?>
<!DOCTYPE svg PUBLIC "-//W3C//DTD SVG 1.1//EN" "http://www.w3.org/Graphics/SVG/1.1/DTD/svg11.dtd">
<svg width="100%" height="100%" viewBox="0 0 512 512" version="1.1" xmlns="http://www.w3.org/2000/svg" xmlns:xlink="http://www.w3.org/1999/xlink" xml:space="preserve" xmlns:serif="http://www.serif.com/" style="fill-rule:evenodd;clip-rule:evenodd;stroke-linejoin:round;stroke-miterlimit:2;">
    <rect id="Icon" x="0" y="0" width="512" height="512" style="fill:none;"/>
    <g id="Icon1" serif:id="Icon">
        <g id="TheIcon" transform="matrix(1,0,0,1,0,3.18305)">
            <g id="Background" transform="matrix(1.16531,0,0,1.13692,-44.2223,-29.4696)">
                <path d="M475.066,113.874L475.066,382.705C475.066,430.396 437.29,469.115 390.761,469.115L124.183,469.115C77.654,469.115 39.878,430.396 39.878,382.705L39.878,113.874C39.878,66.183 77.654,27.464 124.183,27.464L390.761,27.464C437.29,27.464 475.066,66.183 475.066,113.874Z" style="fill:rgb(98,72,187);"/>
            </g>
            <g id="Container" transform="matrix(1.16148,0,0,1.16148,-42.4012,-40.9871)">
                <g transform="matrix(0.995455,0,0,0.988115,1.89721,3.46668)">
                    <path d="M417.386,90.824L417.386,276.003C417.386,284.665 410.406,291.697 401.808,291.697L109.401,291.697C100.804,291.697 93.824,284.665 93.824,276.003L93.824,90.824C93.824,82.163 100.804,75.131 109.401,75.131L401.808,75.131C410.406,75.131 417.386,82.163 417.386,90.824Z" style="fill:rgb(237,233,229);"/>
                </g>
                <g transform="matrix(1.0023,0,0,1,-0.929653,0)">
                    <path d="M404.639,125.675L404.639,274.795C404.639,276.665 403.124,278.184 401.258,278.184L112.403,278.184C110.536,278.184 109.021,276.665 109.021,274.795L109.021,125.675C109.021,123.804 110.536,122.286 112.403,122.286L401.258,122.286C403.124,122.286 404.639,123.804 404.639,125.675Z" style="fill:rgb(98,72,188);"/>
                </g>
                <g transform="matrix(1.07576,0,0,1.07576,-9.15063,-7.3844)">
                    <circle cx="125.348" cy="100.731" r="8.143" style="fill:rgb(98,72,188);"/>
                </g>
                <g transform="matrix(1.07576,0,0,1.07576,18.1891,-7.3844)">
                    <circle cx="125.348" cy="100.731" r="8.143" style="fill:rgb(98,72,188);"/>
                </g>
                <g transform="matrix(1.07576,0,0,1.07576,44.117,-7.3844)">
                    <circle cx="125.348" cy="100.731" r="8.143" style="fill:rgb(98,72,188);"/>
                </g>
                <g id="Text" transform="matrix(1,0,0,1,11.7682,0)">
                    <g transform="matrix(0.626299,0,0,0.626299,-3.79568,294.411)">
                        <g transform="matrix(288,0,0,288,433.939,213.219)">
                        </g>
                        <text x="194.314px" y="213.219px" style="font-family:'Kenney-Future', 'Kenney Future';font-size:288px;fill:rgb(237,233,229);">T</text>
                    </g>
                    <g transform="matrix(0.626299,0,0,0.626299,110.895,294.411)">
                        <g transform="matrix(144,0,0,144,447.34,213.219)">
                        </g>
                        <text x="159.903px" y="213.219px" style="font-family:'Kenney-Future', 'Kenney Future';font-size:144px;fill:rgb(237,233,229);">Kit</text>
                    </g>
                </g>
                <g id="Gamepad">
                    <path d="M191.431,161.846L210.901,161.846C212.317,161.846 212.842,159.244 214.258,159.244L228.732,159.244C237.485,159.244 243.497,166.814 247.288,174.569C246.322,172.69 258.508,204.686 260.893,223.44C263.316,242.501 249.666,242.501 249.666,242.501L242.758,242.501C232.844,242.501 228.732,218.417 214.258,218.417L191.431,218.417L193.194,218.417L170.366,218.417C155.892,218.417 151.78,242.501 141.867,242.501L134.958,242.501C134.958,242.501 121.308,242.501 123.731,223.44C126.116,204.686 138.302,172.69 137.336,174.569C141.127,166.814 147.139,159.244 155.892,159.244L170.366,159.244C171.782,159.244 172.308,161.846 173.724,161.846L193.194,161.846" style="fill:rgb(236,235,228);"/>
                    <g transform="matrix(0.691758,0,0,0.691758,137.034,110.347)">
                        <circle cx="125.348" cy="100.731" r="8.143" style="fill:rgb(98,72,188);"/>
                    </g>
                    <g transform="matrix(0.691758,0,0,0.691758,137.034,133.087)">
                        <circle cx="125.348" cy="100.731" r="8.143" style="fill:rgb(98,72,188);"/>
                    </g>
                    <g transform="matrix(4.2358e-17,-0.691758,0.691758,4.2358e-17,142.693,278.109)">
                        <circle cx="125.348" cy="100.731" r="8.143" style="fill:rgb(98,72,188);"/>
                    </g>
                    <g transform="matrix(4.2358e-17,-0.691758,0.691758,4.2358e-17,165.433,278.109)">
                        <circle cx="125.348" cy="100.731" r="8.143" style="fill:rgb(98,72,188);"/>
                    </g>
                    <path d="M165.559,206.215L156.084,206.215L156.084,196.592L146.51,196.592L146.51,186.623L156.084,186.623L156.084,177.099L165.559,177.099L165.559,186.623L175.133,186.623L175.133,196.592L165.559,196.592L165.559,206.215Z" style="fill:rgb(98,72,188);"/>
                </g>
                <g id="Twitch">
                    <g transform="matrix(1.45071,0,0,1.45071,-148.644,-87.7309)">
                        <path d="M313.412,233.806L313.412,220.553L292.931,220.553L292.931,155.493L366.666,155.493L366.666,203.445L349.617,220.493L326.906,220.493L313.412,233.806Z" style="fill:rgb(236,235,228);"/>
                    </g>
                    <path d="M313.412,233.806L313.412,220.553L292.931,220.553L292.931,155.493L366.666,155.493L366.666,203.445L349.617,220.493L326.906,220.493L313.412,233.806Z" style="fill:rgb(98,72,188);"/>
                    <rect x="315.105" y="170.989" width="11.646" height="29.363" style="fill:rgb(236,235,228);"/>
                    <g transform="matrix(1,0,0,1,25.8314,0)">
                        <rect x="315.105" y="170.989" width="11.646" height="29.363" style="fill:rgb(236,235,228);"/>
                    </g>
                </g>
                <g id="Mark">
                    <g transform="matrix(1.18974,0,0,1.18974,-72.6116,-46.0696)">
                        <circle cx="389.035" cy="259.31" r="41.024" style="fill:rgb(98,72,188);"/>
                    </g>
                    <g transform="matrix(1.04993,0,0,1.04993,-18.2184,-9.81394)">
                        <circle cx="389.035" cy="259.31" r="41.024" style="fill:rgb(65,201,146);"/>
                    </g>
                    <path d="M409.956,238.665L383.584,269.508L370.167,256.014L361.146,263.648L383.584,287.397L418.515,247.069L409.956,238.665Z" style="fill:rgb(236,235,228);"/>
                </g>
            </g>
        </g>
    </g>
</svg>
