<?xml version="1.0" encoding="UTF-8" standalone="no"?>
<!DOCTYPE svg PUBLIC "-//W3C//DTD SVG 1.1//EN" "http://www.w3.org/Graphics/SVG/1.1/DTD/svg11.dtd">
<svg width="100%" height="100%" viewBox="0 0 513 512" version="1.1" xmlns="http://www.w3.org/2000/svg" xmlns:xlink="http://www.w3.org/1999/xlink" xml:space="preserve" xmlns:serif="http://www.serif.com/" style="fill-rule:evenodd;clip-rule:evenodd;stroke-linecap:round;stroke-linejoin:round;stroke-miterlimit:1;">
    <g transform="matrix(1,0,0,1,-631,0)">
        <g id="Icon" transform="matrix(1,0,0,1,631.171,0)">
            <rect x="0" y="0" width="512" height="512" style="fill:none;"/>
            <g id="Container" transform="matrix(1.2677,0,0,1.2677,-53.1863,-13.4736)">
                <g id="TheIcon">
                    <g id="Container1" serif:id="Container">
                        <g id="Twitch" transform="matrix(3.09291,0,0,3.09291,-768.151,-437.853)">
                            <g transform="matrix(1.16497,0,0,1.16497,-54.4061,-32.1109)">
                                <path d="M313.412,237.108L313.412,223.855L286.327,223.855L286.327,163.508L297.962,161.153L354.088,161.153L357.861,202.816L343.329,214.204L326.906,223.795L313.412,237.108Z" style="fill:rgb(90,54,195);"/>
                            </g>
                            <path d="M313.412,233.806L313.412,220.553L292.931,220.553L292.931,155.493L366.666,155.493L366.666,203.445L349.617,220.493L326.906,220.493L313.412,233.806Z" style="fill:url(#_Linear1);"/>
                            <g transform="matrix(1,0,0,1,-8.47098,0)">
                                <rect x="315.105" y="170.989" width="11.646" height="29.363" style="fill:rgb(7,7,7);"/>
                            </g>
                            <g transform="matrix(1,0,0,1,17.3604,0)">
                                <rect x="315.105" y="170.989" width="11.646" height="29.363" style="fill:rgb(7,7,7);"/>
                            </g>
                        </g>
                        <g id="Gamepad" transform="matrix(2.17147,0,0,2.17147,-178.322,-120.551)">
                            <path d="M191.431,161.846L205.237,161.846C206.653,161.846 212.842,159.244 214.258,159.244L228.732,159.244C237.485,159.244 243.497,166.814 247.288,174.569C246.322,172.69 258.508,204.686 260.893,223.44C263.316,242.501 249.666,242.501 249.666,242.501L242.758,242.501C232.844,242.501 228.732,218.417 214.258,218.417L191.431,218.417L193.194,218.417L170.366,218.417C155.892,218.417 151.78,242.501 141.867,242.501L134.958,242.501C134.958,242.501 121.308,242.501 123.731,223.44C126.116,204.686 138.302,172.69 137.336,174.569C141.127,166.814 147.139,159.244 155.892,159.244L170.366,159.244C171.782,159.244 177.437,161.846 178.853,161.846L193.194,161.846" style="fill:url(#_Linear2);stroke:rgb(5,6,6);stroke-width:4.46px;"/>
                            <g transform="matrix(0.363271,0,0,0.363271,-127.845,60.4103)">
                                <path d="M807.912,325.32L807.912,397.777C807.912,399.991 806.115,401.788 803.901,401.788L785.567,401.788C783.353,401.788 781.556,399.991 781.556,397.777L781.556,325.32C781.556,323.106 783.353,321.309 785.567,321.309L803.901,321.309C806.115,321.309 807.912,323.106 807.912,325.32Z" style="fill:url(#_Linear3);"/>
                            </g>
                            <g transform="matrix(0.363271,0,0,0.363271,-127.845,60.4103)">
                                <path d="M833.561,351.783L833.561,370.608C833.561,372.881 831.716,374.726 829.443,374.726L759.554,374.726C757.281,374.726 755.436,372.881 755.436,370.608L755.436,351.783C755.436,349.51 757.281,347.665 759.554,347.665L829.443,347.665C831.716,347.665 833.561,349.51 833.561,351.783Z" style="fill:url(#_Linear4);"/>
                            </g>
                            <g transform="matrix(0.691758,0,0,0.691758,137.034,110.347)">
                                <circle cx="125.348" cy="100.731" r="8.143" style="fill:rgb(11,11,15);"/>
                            </g>
                            <g transform="matrix(0.691758,0,0,0.691758,137.034,133.087)">
                                <circle cx="125.348" cy="100.731" r="8.143" style="fill:rgb(11,11,15);"/>
                            </g>
                            <g transform="matrix(4.2358e-17,-0.691758,0.691758,4.2358e-17,142.693,278.109)">
                                <circle cx="125.348" cy="100.731" r="8.143" style="fill:rgb(11,11,15);"/>
                            </g>
                            <g transform="matrix(4.2358e-17,-0.691758,0.691758,4.2358e-17,165.433,278.109)">
                                <circle cx="125.348" cy="100.731" r="8.143" style="fill:rgb(11,11,15);"/>
                            </g>
                        </g>
                        <g id="Bolt" transform="matrix(0.509058,0,0,0.509058,-102.765,-16.2236)">
                            <path d="M928.741,73.401L801.775,231.39C801.775,231.39 799.817,239.791 808.759,240.026C817.701,240.262 880.06,240.262 880.06,240.262C880.06,240.262 882.692,242.441 881.892,247.305C880.06,258.431 862.176,341.684 862.176,341.684C862.176,341.684 859.588,364.509 875.354,345.919C891.12,327.329 994.895,196.963 994.895,196.963C994.895,196.963 996.307,186.139 985.482,186.139L925.712,186.139C925.712,186.139 918.888,187.315 921.005,178.844C923.123,170.372 942.419,77.187 942.419,77.187C942.419,77.187 938.358,62.557 928.741,73.401Z" style="fill:url(#_Linear5);"/>
                            <path d="M934.775,173.798L985.482,173.798C987.027,173.798 988.44,173.923 989.734,174.137L993.856,175.222L997.651,177.086L1000.86,179.597L1004.08,183.646L1005.95,187.637L1007.08,192.418L1007.13,198.559L1004.55,204.649C1004.55,204.649 900.564,335.274 884.766,353.901C875.774,364.503 868.454,365.784 864.669,365.511L860.982,364.776L857.634,363.165L855.028,361.035L853.2,358.795L851.214,354.883L850.037,350.145C849.347,345.487 849.914,340.293 849.914,340.293L850.111,339.092C850.111,339.092 863.691,275.915 868.331,252.597C849.745,252.583 814.954,252.534 808.434,252.363L804.678,251.977L800.965,250.931L797.47,249.139L794.479,246.681L791.535,242.668L789.977,238.76L789.274,234.235L789.756,228.589L792.156,223.66L919.121,65.671L919.508,65.213C922.943,61.34 926.202,59.344 928.94,58.282L933.114,57.206L937.521,57.198L942.999,58.885L948.393,63.004C952.387,67.337 954.31,73.886 954.31,73.886L954.504,79.689C954.504,79.689 940.137,149.037 934.775,173.798ZM880.06,252.602L878.102,252.602C879.273,252.717 880.06,252.602 880.06,252.602ZM881.766,248.041C879.366,261.662 862.176,341.684 862.176,341.684C862.176,341.684 859.588,364.509 875.354,345.919C891.12,327.329 994.895,196.963 994.895,196.963C994.895,196.963 996.307,186.139 985.482,186.139L925.712,186.139C925.712,186.139 918.888,187.315 921.005,178.844C923.123,170.372 942.419,77.187 942.419,77.187C942.419,77.187 938.358,62.557 928.741,73.401L801.775,231.39C801.775,231.39 799.817,239.791 808.759,240.026C817.701,240.262 880.06,240.262 880.06,240.262L880.06,252.602L881.766,248.041Z"/>
                        </g>
                    </g>
                </g>
            </g>
        </g>
    </g>
    <defs>
        <linearGradient id="_Linear1" x1="0" y1="0" x2="1" y2="0" gradientUnits="userSpaceOnUse" gradientTransform="matrix(72.5757,-62.5021,66.3829,77.082,292.945,219.834)"><stop offset="0" style="stop-color:rgb(120,27,229);stop-opacity:1"/><stop offset="1" style="stop-color:rgb(220,16,154);stop-opacity:1"/></linearGradient>
        <linearGradient id="_Linear2" x1="0" y1="0" x2="1" y2="0" gradientUnits="userSpaceOnUse" gradientTransform="matrix(64.7762,-43.9107,26.5425,39.155,181.212,217.736)"><stop offset="0" style="stop-color:rgb(120,27,229);stop-opacity:1"/><stop offset="0.46" style="stop-color:rgb(149,24,208);stop-opacity:1"/><stop offset="1" style="stop-color:rgb(220,16,154);stop-opacity:1"/></linearGradient>
        <linearGradient id="_Linear3" x1="0" y1="0" x2="1" y2="0" gradientUnits="userSpaceOnUse" gradientTransform="matrix(78.1253,0,0,80.4785,755.436,361.548)"><stop offset="0" style="stop-color:rgb(11,11,15);stop-opacity:1"/><stop offset="1" style="stop-color:black;stop-opacity:1"/></linearGradient>
        <linearGradient id="_Linear4" x1="0" y1="0" x2="1" y2="0" gradientUnits="userSpaceOnUse" gradientTransform="matrix(78.1253,0,0,80.4785,755.436,361.548)"><stop offset="0" style="stop-color:rgb(11,11,15);stop-opacity:1"/><stop offset="1" style="stop-color:black;stop-opacity:1"/></linearGradient>
        <linearGradient id="_Linear5" x1="0" y1="0" x2="1" y2="0" gradientUnits="userSpaceOnUse" gradientTransform="matrix(193.362,0,0,283.811,801.593,211.305)"><stop offset="0" style="stop-color:rgb(212,17,151);stop-opacity:1"/><stop offset="1" style="stop-color:rgb(204,21,158);stop-opacity:1"/></linearGradient>
    </defs>
</svg>
